<svg id="Capa_1" data-name="Capa 1" xmlns="http://www.w3.org/2000/svg" viewBox="0 0 977.32 235.89"><defs><style>.cls-1,.cls-7{fill:#4d4465;}.cls-2,.cls-3{fill:#727176;}.cls-3{font-size:180.04px;font-family:EdwardianScriptITC, Edwardian Script ITC;letter-spacing:-0.01em;}.cls-4,.cls-6{font-size:166.09px;}.cls-4{letter-spacing:-0.01em;}.cls-5{font-size:180.04px;letter-spacing:-0.01em;}.cls-6{letter-spacing:-0.01em;}.cls-7{font-size:48.11px;font-family:Calligraphic810BT-Roman, Calligraphic810BT Roman;letter-spacing:0.25em;}.cls-8{letter-spacing:0.28em;}.cls-9{letter-spacing:0.29em;}.cls-10{letter-spacing:0.28em;}</style></defs><title>LOGO-pcm</title><path class="cls-1" d="M106.22,98.84A1.36,1.36,0,0,1,105,97.76v-.09a1.35,1.35,0,0,1,1.27-1.17v-.74A1.36,1.36,0,0,1,105,94.68v-.09a1.35,1.35,0,0,1,1.27-1.17V62.79a1.37,1.37,0,0,1-1.3-1.09v-.09A1.33,1.33,0,0,1,106,60.47c-1.11-.79-3.1-2.37-3-3.59.06-.86,1.16-1.44,4.32-1.68a1,1,0,0,1-.7-.73v-.07a1,1,0,0,1,1-.88,28.9,28.9,0,0,1,3.88-.13,28.9,28.9,0,0,1,3.88.13,1,1,0,0,1,1,.88h0a1,1,0,0,1-.74.83c2.89.25,3.92.81,4,1.65.1,1.2-1.73,2.77-2.77,3.57a1.34,1.34,0,0,1,1.22,1.16h0a1.35,1.35,0,0,1-1.32,1.18v4.75h12v3.59h4.34V67.54h8.26V81.88h-4V74.71h-4.24v7.17h-4.34v6.47h-12v5a1.35,1.35,0,0,1,1.37,1.19h0a1.36,1.36,0,0,1-1.37,1.19v.69a1.35,1.35,0,0,1,1.37,1.19h0a1.36,1.36,0,0,1-1.37,1.19v28.48s0,.09,0,.13h54V50.74H94v76.73h12.18V98.84Z" transform="translate(-11.34 -11.45)"/><path class="cls-2" d="M113.33,210c-.08-.19-.16-.39-.24-.59s-.17-.39-.24-.59a19,19,0,0,1-.94-6.92h0c.2-8,4.06-11.7,4.06-11.7a18.88,18.88,0,0,0-.38-2.4c-.05-.23-.12-.47-.19-.72l0-.14c0-.17-.11-.34-.17-.51-1.27-3.53-3.42-3.23-3.42-3.23s-3.82-.35-4.29,7c0,0,3.85,3.71,4.06,11.7h0a19,19,0,0,1-.94,6.92c-.07.2-.15.38-.23.57s-.16.42-.25.61l-.13.29h3.47Z" transform="translate(-11.34 -11.45)"/><path class="cls-2" d="M100.33,208.48c-.29,0-.63-.07-1-.09H98.11l-.63.06-.63.1-.33.07c-.26.06-.51.12-.76.2l-.44.15a10.79,10.79,0,0,0-1.28.56v.73h5a12.1,12.1,0,0,0,2.14-1.65C100.89,208.56,100.61,208.52,100.33,208.48Z" transform="translate(-11.34 -11.45)"/><path class="cls-2" d="M122.3,208.62a12.1,12.1,0,0,0,2.14,1.65h6.26a10.8,10.8,0,0,0-8.4-1.65Z" transform="translate(-11.34 -11.45)"/><path class="cls-2" d="M106.86,205.71l0-.24c0-.24.08-.48.12-.72s.09-.69.12-1.11c0-.11,0-.23,0-.34s0-.43,0-.65c0-.4,0-.81,0-1.22,0-.08,0-.15,0-.23-.52-6.47-4.7-13.26-11.21-12.92a5,5,0,0,0-1.9.38v8.57a3.31,3.31,0,0,1,1.41-.35,3.4,3.4,0,1,1,0,6.8,3.34,3.34,0,0,1-.45,0l.12,0a8,8,0,0,1-1.08-.09v.73a15.51,15.51,0,0,1,12.82,1.4Z" transform="translate(-11.34 -11.45)"/><path class="cls-2" d="M99.12,168.7a2.05,2.05,0,0,0-1-2A3.71,3.71,0,0,1,94.48,170a3.58,3.58,0,0,1-.44,0v5.46C98.26,172.61,99.12,170.06,99.12,168.7Z" transform="translate(-11.34 -11.45)"/><path class="cls-2" d="M98.35,177.28h0l-2.43,1.14c1-.44,2-.86,2.83-1.25l-.16.09h0c-1.49.69-3,1.41-4.52,2.16v5.17a10.38,10.38,0,0,1,1.4-.16,15.09,15.09,0,0,1,3.93.38h0l.46.12.21.06a13.25,13.25,0,0,1,3.88,1.8s.43-6.25,5-8.21a4.21,4.21,0,0,1,.09-6.75c-7.41-1.66-1.85-11.74-1.85-11.74h-.22a2.83,2.83,0,0,1-1.86-1.19s.67-3,1.86-3.45c0,0-3.86-2.39-3.74-4.08a1,1,0,0,1,0-.23h0a1,1,0,0,1,.15-.27,31.32,31.32,0,0,0,2.77-6.85,5.49,5.49,0,0,0,.06-.85h0a1.36,1.36,0,0,1-1.25-1.08V142a1.35,1.35,0,0,1,1.27-1.17v-.36c-1.13-.83-2.89-2.3-2.81-3.44a.94.94,0,0,1,.14-.44h0a1.2,1.2,0,0,1,.25-.28,7.82,7.82,0,0,0,1.2-2.75H94v26.4a9,9,0,0,1,3.3-.59C104.07,159.33,110.31,170.35,98.35,177.28Z" transform="translate(-11.34 -11.45)"/><path class="cls-2" d="M119.95,136.65v0h0a1,1,0,0,1,.1.34c.12,1.35-2.2,3.16-3.12,3.82a1.34,1.34,0,0,1,1.2,1.16h0a1.35,1.35,0,0,1-1.28,1.17l.05,0c0,.12,0,.26,0,.39h.26a32.78,32.78,0,0,0,2.53,7.45h0a1,1,0,0,1,.11.36c.14,1.68-3.48,4.08-3.48,4.08,1.19.42,1.86,3.45,1.86,3.45a2.84,2.84,0,0,1-1.85,1.19h0s5.72,10.39-2.22,11.8h0a4.2,4.2,0,0,1,.15,6.54c4.82,1.8,5.26,8.34,5.26,8.34a13.25,13.25,0,0,1,3.88-1.8l.22-.06.46-.12h0a15.09,15.09,0,0,1,3.93-.37,9.4,9.4,0,0,1,9.23,9.54c0,5.64-4.32,9.66-8.91,9.69l.12,0a3.36,3.36,0,0,1-.45,0,3.4,3.4,0,1,1,3.09-4.8,3.38,3.38,0,0,0,.51-.37,5.55,5.55,0,0,0,1.31-2,5.83,5.83,0,0,0,.23-.8h0a7.52,7.52,0,0,0,.13-1.12c0-.08,0-.15,0-.23a6.09,6.09,0,0,0-5.77-6.06c-8.07-.42-12.58,10.13-10.94,17.43a15.68,15.68,0,0,1,20.87,4.54h3.15A14.92,14.92,0,0,0,147,197.71c0-7-5.75-11.92-12.74-15.86q-1.3-.66-2.62-1.3c-2.22-1.15-4.51-2.23-6.73-3.26h0l-.16-.09c.82.38,1.81.81,2.83,1.25l-2.44-1.14h0c-12-6.93-5.72-17.95,1-17.94,7.92,0,9,8.06,5.07,9.9a3.69,3.69,0,0,1-5.89-2.55,2.05,2.05,0,0,0-1,2c0,1.58,1.14,4.79,7.43,8.09l.12,0,.21.11-.14-.06.3.16,1.42.59.14.06.67.29a52.5,52.5,0,0,1,9.52,5.18h0a22.21,22.21,0,0,1,4.29,3.82l.43.51q.28.34.55.71c.17.22.33.45.48.68s.42.63.62,1l.15.24,0,.07h0a17.49,17.49,0,0,1,2.22,8.77,18,18,0,0,1-3.87,11.34h21.84V133.53H118.5a13.15,13.15,0,0,0,1.27,2.87A1.06,1.06,0,0,1,119.95,136.65Z" transform="translate(-11.34 -11.45)"/><path class="cls-2" d="M75.9,162.16a1.36,1.36,0,0,1,1.25,1.08v.09a1.35,1.35,0,0,1-1.27,1.17v.74a1.36,1.36,0,0,1,1.25,1.08v.09a1.35,1.35,0,0,1-1.27,1.17v30.63a1.37,1.37,0,0,1,1.3,1.09v.09a1.33,1.33,0,0,1-1.11,1.14c1.11.79,3.1,2.37,3,3.59-.06.86-1.16,1.44-4.32,1.68a1,1,0,0,1,.7.73v.07a1,1,0,0,1-1,.88,28.9,28.9,0,0,1-3.88.13,28.9,28.9,0,0,1-3.88-.13,1,1,0,0,1-1-.88h0a1,1,0,0,1,.74-.83c-2.89-.25-3.92-.81-4-1.65-.1-1.2,1.73-2.77,2.77-3.57A1.34,1.34,0,0,1,64,199.39h0a1.35,1.35,0,0,1,1.32-1.18v-4.75h-12v-3.59H49v3.59H40.79V179.12h4v7.17H49v-7.17h4.34v-6.47h12v-5A1.35,1.35,0,0,1,64,166.41h0a1.36,1.36,0,0,1,1.37-1.19v-.69A1.35,1.35,0,0,1,64,163.34h0a1.36,1.36,0,0,1,1.37-1.19V133.66s0-.09,0-.13h-54v76.73H88.07V133.53H75.9v28.63Z" transform="translate(-11.34 -11.45)"/><path class="cls-2" d="M68.78,51c.08.19.16.39.24.59s.17.39.24.59a19,19,0,0,1,.94,6.92h0c-.2,8-4.06,11.7-4.06,11.7a18.88,18.88,0,0,0,.38,2.4c.05.23.12.47.19.72l0,.14c0,.17.11.34.17.51,1.27,3.53,3.42,3.23,3.42,3.23s3.82.35,4.29-7c0,0-3.85-3.71-4.06-11.7h0a19,19,0,0,1,.94-6.92c.07-.2.15-.38.23-.57s.16-.42.25-.61l.13-.29H68.65Z" transform="translate(-11.34 -11.45)"/><path class="cls-2" d="M81.78,52.52c.29,0,.63.07,1,.09H84l.63-.06.63-.1.33-.07c.26-.06.51-.12.76-.2l.44-.15a10.79,10.79,0,0,0,1.28-.56v-.73h-5a12.1,12.1,0,0,0-2.14,1.65C81.22,52.44,81.5,52.49,81.78,52.52Z" transform="translate(-11.34 -11.45)"/><path class="cls-2" d="M59.82,52.38a12.1,12.1,0,0,0-2.14-1.65H51.42a10.8,10.8,0,0,0,8.4,1.65Z" transform="translate(-11.34 -11.45)"/><path class="cls-2" d="M75.25,55.29l0,.24c0,.24-.08.48-.12.72s-.09.69-.12,1.11c0,.11,0,.23,0,.34s0,.43,0,.65c0,.4,0,.81,0,1.22,0,.08,0,.15,0,.23.52,6.47,4.7,13.26,11.21,12.92a5,5,0,0,0,1.9-.38V63.76a3.31,3.31,0,0,1-1.41.35,3.4,3.4,0,1,1,0-6.8,3.34,3.34,0,0,1,.45,0l-.12,0a8,8,0,0,1,1.08.09v-.73a15.51,15.51,0,0,1-12.82-1.4Z" transform="translate(-11.34 -11.45)"/><path class="cls-2" d="M83,92.3a2.05,2.05,0,0,0,1,2A3.71,3.71,0,0,1,87.63,91a3.58,3.58,0,0,1,.44,0V85.59C83.85,88.39,83,90.95,83,92.3Z" transform="translate(-11.34 -11.45)"/><path class="cls-2" d="M83.76,83.72h0l2.43-1.14c-1,.44-2,.86-2.83,1.25l.16-.09h0c1.49-.69,3-1.41,4.52-2.16V76.38a10.38,10.38,0,0,1-1.4.16,15.09,15.09,0,0,1-3.93-.38h0l-.46-.12L82.06,76a13.25,13.25,0,0,1-3.88-1.8s-.43,6.25-5,8.21a4.21,4.21,0,0,1-.09,6.75C80.54,90.82,75,100.91,75,100.91h.22a2.83,2.83,0,0,1,1.86,1.19s-.67,3-1.86,3.45c0,0,3.86,2.39,3.74,4.08a1,1,0,0,1,0,.23h0a1,1,0,0,1-.15.27A31.32,31.32,0,0,0,76,117a5.49,5.49,0,0,0-.06.85h0a1.36,1.36,0,0,1,1.25,1.08V119a1.35,1.35,0,0,1-1.27,1.17v.36c1.13.83,2.89,2.3,2.81,3.44a.94.94,0,0,1-.14.44h0a1.2,1.2,0,0,1-.25.28,7.82,7.82,0,0,0-1.2,2.75h11v-26.4a9,9,0,0,1-3.3.59C78,101.67,71.8,90.65,83.76,83.72Z" transform="translate(-11.34 -11.45)"/><path class="cls-2" d="M62.16,124.35v0h0a1,1,0,0,1-.1-.34c-.12-1.35,2.2-3.16,3.12-3.82A1.34,1.34,0,0,1,64,119h0a1.35,1.35,0,0,1,1.28-1.17l-.05,0c0-.12,0-.26,0-.39h-.26A32.78,32.78,0,0,0,62.4,110h0a1,1,0,0,1-.11-.36c-.14-1.68,3.48-4.08,3.48-4.08-1.19-.42-1.86-3.45-1.86-3.45a2.84,2.84,0,0,1,1.85-1.19h0S60,90.52,68,89.1h0a4.2,4.2,0,0,1-.15-6.54c-4.82-1.8-5.26-8.34-5.26-8.34A13.25,13.25,0,0,1,58.7,76l-.22.06-.46.12h0a15.09,15.09,0,0,1-3.93.37A9.4,9.4,0,0,1,44.86,67c0-5.64,4.32-9.66,8.91-9.69l-.12,0a3.36,3.36,0,0,1,.45,0A3.4,3.4,0,1,1,51,62.11a3.38,3.38,0,0,0-.51.37,5.55,5.55,0,0,0-1.31,2,5.83,5.83,0,0,0-.23.8h0a7.52,7.52,0,0,0-.13,1.12c0,.08,0,.15,0,.23a6.09,6.09,0,0,0,5.77,6.06c8.07.42,12.58-10.13,10.94-17.43a15.68,15.68,0,0,1-20.87-4.54H41.5a14.92,14.92,0,0,0-6.39,12.56c0,7,5.75,11.92,12.74,15.86q1.3.66,2.62,1.3c2.22,1.15,4.51,2.23,6.73,3.26h0l.16.09c-.82-.38-1.81-.81-2.83-1.25L57,83.71h0c12,6.93,5.72,17.95-1,17.94-7.92,0-9-8.06-5.07-9.9a3.69,3.69,0,0,1,5.89,2.55,2.05,2.05,0,0,0,1-2c0-1.58-1.14-4.79-7.43-8.09l-.12,0L50,84.06l.14.06-.3-.16-1.42-.59-.14-.06L47.63,83a52.5,52.5,0,0,1-9.52-5.18h0A22.21,22.21,0,0,1,33.79,74l-.43-.51q-.28-.34-.55-.71c-.17-.22-.33-.45-.48-.68s-.42-.63-.62-1l-.15-.24,0-.07h0a17.49,17.49,0,0,1-2.22-8.77,18,18,0,0,1,3.87-11.34H11.34v76.73H63.61a13.15,13.15,0,0,0-1.27-2.87A1.06,1.06,0,0,1,62.16,124.35Z" transform="translate(-11.34 -11.45)"/><text class="cls-3" transform="translate(192.35 147.63)">P<tspan class="cls-4" x="137.38" y="0">rivate</tspan><tspan class="cls-5" x="376.24" y="0">C</tspan><tspan class="cls-6" x="518.62" y="0">apital </tspan></text><text class="cls-7" transform="translate(220.9 223.87)">W<tspan class="cls-8" x="52.63" y="0">ealth </tspan><tspan class="cls-9" x="245.21" y="0">M</tspan><tspan class="cls-8" x="297.7" y="0">anageme</tspan><tspan class="cls-10" x="580.62" y="0">n</tspan><tspan class="cls-8" x="620.65" y="0">t</tspan></text></svg>